<?xml version="1.0" encoding="utf-8"?>
<!-- Generator: Adobe Illustrator 27.6.1, SVG Export Plug-In . SVG Version: 6.00 Build 0)  -->
<svg version="1.0" xmlns="http://www.w3.org/2000/svg" xmlns:xlink="http://www.w3.org/1999/xlink" x="0px" y="0px"
	 viewBox="0 0 581.9 317.6" enable-background="new 0 0 581.9 317.6" xml:space="preserve">
<g id="BACKGROUND">
	
		<line id="XMLID_324_" fill="none" stroke="#616F7B" stroke-width="1.7008" stroke-linecap="round" stroke-linejoin="round" stroke-miterlimit="10" x1="220" y1="162.9" x2="220" y2="270.7"/>
	
		<line id="XMLID_323_" fill="none" stroke="#616F7B" stroke-width="1.7008" stroke-linecap="round" stroke-linejoin="round" stroke-miterlimit="10" x1="350.1" y1="154.5" x2="350.1" y2="270.7"/>
	<g id="XMLID_128_">
		
			<path id="XMLID_123_" fill="none" stroke="#616F7B" stroke-width="1.7008" stroke-linecap="round" stroke-linejoin="round" stroke-miterlimit="10" d="
			M43.1,167.7c0,0,36.7,77.5,94.2,77.5c57.5,0,73.8-119.1,155.7-119.1s94,111.5,131.8,111.5c37.8,0,40.9-71,154.3-71"/>
		<path id="XMLID_124_" fill="none" stroke="#88C148" stroke-width="2.8346" stroke-miterlimit="10" d="M43.1,167.7
			c0,0,36.7,77.5,94.2,77.5c57.5,0,73.8-119.1,155.7-119.1c38.5,0,61.6,24.7,79.2,50.8"/>
	</g>
	<g id="XMLID_129_">
		
			<path id="XMLID_125_" fill="none" stroke="#616F7B" stroke-width="1.7008" stroke-linecap="round" stroke-linejoin="round" stroke-miterlimit="10" d="
			M43.1,136.2c0,0,27.6-40.1,85.1-40.1c57.5,0,85.5,102.9,159.6,102.9c74.1,0,72.6-123.3,116.5-123.3c43.9,0,44.6,112.4,171.7,40.9"
			/>
		<path id="XMLID_127_" fill="none" stroke="#E93323" stroke-width="2.8346" stroke-miterlimit="10" d="M43.1,136.2
			c0,0,27.6-40.1,85.1-40.1c57.5,0,85.5,102.9,159.6,102.9c46.3,0,63.1-48.2,79.9-84.3"/>
	</g>
	
		<polyline id="XMLID_130_" fill="none" stroke="#616F7B" stroke-width="1.7008" stroke-linecap="round" stroke-linejoin="round" stroke-miterlimit="10" points="
		4,4.1 4,270.7 581.9,270.7 	"/>
	<g id="XMLID_133_">
		
			<path id="XMLID_131_" fill="none" stroke="#616F7B" stroke-width="1.7008" stroke-linecap="round" stroke-linejoin="round" stroke-miterlimit="10" d="
			M43.1,70.1c0,0,48-25,88.1-25s68.8,62.6,130.9,62.6S358.9,27,409.6,27c50.7,0,64.3,71.9,169.5,71.9"/>
		<path id="XMLID_132_" fill="none" stroke="#B2B2B2" stroke-width="2.8346" stroke-miterlimit="10" d="M43.1,70.1
			c0,0,48-25,88.1-25s68.8,62.6,130.9,62.6S358.9,27,409.6,27c23.2,0,38.6,15,58.6,31.3"/>
	</g>
	<path id="XMLID_134_" fill="#88C148" d="M151.3,296h-12.6c-2.6,0-4.7-2.1-4.7-4.7l0,0c0-2.6,2.1-4.7,4.7-4.7h12.6
		c2.6,0,4.7,2.1,4.7,4.7l0,0C156,293.9,153.9,296,151.3,296z"/>
	<path id="XMLID_136_" fill="#E93323" d="M288.1,296h-12.6c-2.6,0-4.7-2.1-4.7-4.7l0,0c0-2.6,2.1-4.7,4.7-4.7h12.6
		c2.6,0,4.7,2.1,4.7,4.7l0,0C292.8,293.9,290.7,296,288.1,296z"/>
	<path id="XMLID_137_" fill="#B2B2B2" d="M439,296h-12.6c-2.6,0-4.7-2.1-4.7-4.7l0,0c0-2.6,2.1-4.7,4.7-4.7H439
		c2.6,0,4.7,2.1,4.7,4.7l0,0C443.6,293.9,441.5,296,439,296z"/>
	<g id="XMLID_563_">
		
			<rect id="XMLID_00000048486224317725299740000009034339895970966418_" x="71.4" y="303.5" fill="none" width="136.6" height="22.9"/>
		<text transform="matrix(1 0 0 1 113.514 313.6601)" fill="#616F7B" font-family="'Montserrat-Medium'" font-size="13.7177px">Receita</text>
	</g>
	<g id="XMLID_535_">
		
			<rect id="XMLID_00000153666703690763597180000011111773493706988207_" x="213.5" y="304.8" fill="none" width="136.6" height="22.9"/>
		<text transform="matrix(1 0 0 1 252.0814 314.9531)" fill="#616F7B" font-family="'Montserrat-Medium'" font-size="13.7177px">Despesa</text>
	</g>
	<g id="XMLID_528_">
		
			<rect id="XMLID_00000133519125417250672520000016883962419947210893_" x="367.1" y="304.8" fill="none" width="136.6" height="22.9"/>
		<text transform="matrix(1 0 0 1 389.0736 314.9531)" fill="#616F7B" font-family="'Montserrat-Medium'" font-size="13.7177px">Investimento</text>
	</g>
</g>
<g id="OBJECTS">
</g>
<g id="DESIGNED_BY_FREEPIK">
</g>
</svg>
