<?xml version="1.0" encoding="utf-8"?>
<!-- Generator: Adobe Illustrator 27.6.1, SVG Export Plug-In . SVG Version: 6.00 Build 0)  -->
<svg version="1.0" id="Camada_1" xmlns="http://www.w3.org/2000/svg" xmlns:xlink="http://www.w3.org/1999/xlink" x="0px" y="0px"
	 viewBox="0 0 300 300" enable-background="new 0 0 300 300" xml:space="preserve">
<circle fill="#B3B3B3" cx="150" cy="150" r="150.5"/>
<path fill="#95C05A" d="M150,150L34.2,246.1c-22.4-27-34.7-61-34.7-96.1C-0.5,67.4,67.4-0.5,150-0.5c30.3,0,60,9.2,85,26.3L150,150z
	"/>
<path fill="#D74532" d="M150,150h150.5c0,82.6-67.9,150.5-150.5,150.5S-0.5,232.6-0.5,150c0-21.4,4.6-42.5,13.4-62L150,150z"/>
<text transform="matrix(1 0 0 1 106.5713 228.8506)" fill="#FFFFFF" font-family="'Montserrat-Regular'" font-size="13.8475px">Despesa</text>
<text transform="matrix(1 0 0 1 104.8794 68.7974)" fill="#FFFFFF" font-family="'Montserrat-Regular'" font-size="13.8475px">Receita</text>
<text transform="matrix(1 0 0 1 188.5166 131.9175)" fill="#FFFFFF" font-family="'Montserrat-Regular'" font-size="13.8475px">Investimento</text>
</svg>
