<?xml version="1.0" encoding="UTF-8"?>
<svg id="Camada_1" data-name="Camada 1" xmlns="http://www.w3.org/2000/svg" width="177" height="185" viewBox="0 0 177 185">
  <defs>
    <style>
      .cls-1 {
        fill: #83e5ae;
      }

      .cls-2 {
        fill: #143244;
      }
    </style>
  </defs>
  <path class="cls-1" d="m162.5,92c-.6,1-1.3,1.9-2.2,2.7-3.2,3.2-6.4,6.4-9.6,9.6-2.3,2.3-4.8,2.3-7.1,0-3.4-3.4-6.8-6.8-10.2-10.2-2.2-2.2-2.3-4.9-.4-6.8,1.9-1.8,4.6-1.6,6.7.4.8.8,1.6,1.7,2.6,2.8.5-2.3,0-4.1-.1-5.9-1.5-12.8-6.8-23.8-15.9-32.9-9.1-9.1-20.1-14.5-33-15.9-22.5-2.5-43.9,8.6-54.8,28.5-.9,1.6-1.9,3-3.8,3.3-1.8.3-3.3-.3-4.3-1.7-1.1-1.5-1.2-3.2-.4-4.8,2-3.9,4.3-7.5,7.1-10.8,10.6-12.9,24.2-21,40.7-23.1,25.6-3.3,46.3,5.7,61.8,26.4,7.4,9.9,11.2,21.2,11.9,33.5,0,1,.2,2,.3,3.6,1-1.1,1.6-1.9,2.4-2.6,3.1-3.1,6-2.7,8.2,1.1v2.9Z"/>
  <path class="cls-1" d="m24.2,95.2c-1.2,1.2-2,2.2-2.9,3.1-1.9,1.9-4.6,1.9-6.4.2-1.8-1.8-1.9-4.6,0-6.5,3.6-3.7,7.2-7.3,10.9-10.9,1.8-1.8,4.4-1.8,6.3,0,3.7,3.6,7.4,7.3,11,11,1.8,1.9,1.8,4.6,0,6.4-1.7,1.7-4.5,1.7-6.3,0-1-.9-1.9-2.1-3-3-.4,2.8,0,5.4.4,7.9,3.3,18.3,13.1,32.1,29.5,40.7,26.5,13.9,59.4,3.7,73.8-22.5.9-1.7,1.9-3.2,4-3.5,1.8-.2,3.3.3,4.3,1.8,1,1.5,1.1,3.1.3,4.7-1.9,3.8-4.2,7.3-6.9,10.6-10.7,13.1-24.3,21.1-41,23.4-21.3,2.9-39.9-3.3-55.1-18.6-10.5-10.5-16.5-23.2-18.2-38-.2-2.1-.4-4.2-.6-6.9Z"/>
  <path class="cls-2" d="m104.1,101.4c0,6.7-4,12.7-10,15.1-1.2.5-1.7,1.1-1.7,2.4,0,2.9-1.9,5-4.5,5.1-2.5,0-4.5-2-4.6-4.9,0-1.1-.4-1.6-1.5-1.8-2.7-.4-5.1-1.6-7.3-3.1-2.3-1.5-3-4.2-1.7-6.3,1.4-2.2,4.1-2.9,6.5-1.3,2.6,1.7,5.4,2.3,8.4,2.2,4.2-.2,7.2-3.2,7.2-7.2,0-2.6-1.1-4.2-3.8-5.3-2.3-.9-4.7-1.8-7-2.8-2-.8-3.8-1.9-5.6-3.1-4.8-3.3-6.5-9.5-4.2-15.3,1.4-3.6,3.9-6.3,7.6-7.8,1-.4,1.3-.9,1.3-1.9,0-3,1.9-5,4.5-5,2.6,0,4.4,1.9,4.5,4.8,0,1,.4,1.5,1.4,1.7,1.7.5,3.3,1.3,4.7,2.3,2.2,1.5,2.8,4.1,1.5,6.3-1.3,2.2-4,2.8-6.4,1.3-2.2-1.4-4.6-2-7.2-1.4-2.7.7-4.4,3.2-3.8,6,.2.9.8,1.4,1.5,1.8,2.9,1.9,6.2,3.1,9.5,4.3,5,1.8,8.4,5,9.9,10.2.4,1.3.6,2.6.5,3.7Z"/>
</svg>