<?xml version="1.0" encoding="UTF-8"?>
<svg id="Camada_1" data-name="Camada 1" xmlns="http://www.w3.org/2000/svg" width="177" height="185" viewBox="0 0 177 185">
  <defs>
    <style>
      .cls-1 {
        fill: #83e5ae;
      }

      .cls-2 {
        fill: #143244;
      }
    </style>
  </defs>
  <path class="cls-2" d="m49,79.7c-15.9,0-28.7-12.8-28.7-28.7,0-16.4,12.5-28.9,28.9-28.9,16.3,0,28.6,12.7,28.6,29.2,0,15.6-13,28.4-28.8,28.4Zm4.5-21.6c0,.3-.1.8-.3,1.3-.7,1.9-2.6,3.1-4.5,2.9-2.2-.2-3.6-1.6-4.2-4.3-.4-1.9-1.3-2.7-2.8-2.4-1.4.2-2.2,1.4-2,3.2.5,3.4,2.2,6,5.3,7.5.9.4,1.5.9,1.6,2,.1,1.4.9,2.4,2.4,2.4,1.4,0,2.2-1,2.3-2.3.1-1.2.8-1.7,1.8-2.2,6.4-3.1,6.9-12.1,1-16.1-1.7-1.2-3.7-1.5-5.7-1.7-2.1-.2-3.7-1.9-3.9-4-.2-1.9.9-3.8,2.7-4.6,2.9-1.2,5.4.5,6.2,4.1.4,1.8,1.2,2.5,2.8,2.3,1.4-.2,2.2-1.4,2-3-.4-3.5-2.2-6.1-5.3-7.7-1-.5-1.5-1-1.7-2.1-.1-1.3-.9-2.3-2.3-2.3-1.5,0-2.3,1-2.4,2.4,0,1.1-.7,1.5-1.6,2-5.6,2.8-7,9.9-2.9,14.6,1.9,2.2,4.4,3,7.2,3.2,2.4.2,4.1,2.1,4.1,4.7Z"/>
  <path class="cls-1" d="m145.2,109.4c0,12.8,0,25.6,0,38.5,0,2.2,0,2.2-2.3,2.2-6,0-11.9,0-17.9,0-1.6,0-2.2-.4-2.2-2.1,0-25.7,0-51.4,0-77.1,0-2.9,1-3.9,3.9-3.9,4.9,0,9.8,0,14.6,0,2.8,0,3.7.9,3.7,3.7,0,12.9,0,25.7,0,38.6Z"/>
  <path class="cls-1" d="m90.6,117.6c0-10,0-20,0-30,0-2.9.9-3.8,3.8-3.8,4.9,0,9.9,0,14.8,0,2.6,0,3.7,1.1,3.7,3.7,0,20.3,0,40.5,0,60.8,0,1.5-.5,2-2,1.9-6.1,0-12.2,0-18.4,0-1.6,0-2-.6-2-2.1,0-10.2,0-20.3,0-30.5Z"/>
  <path class="cls-1" d="m80.5,126.2c0,7.2,0,14.4,0,21.7,0,2.2,0,2.2-2.1,2.2-6.1,0-12.1,0-18.2,0-1.5,0-2-.5-2-1.9,0-14.5,0-29,0-43.5,0-2.9,1-3.9,4-3.9,4.8,0,9.6,0,14.5,0,2.9,0,3.8,1,3.8,4,0,7.2,0,14.3,0,21.5Z"/>
  <path class="cls-1" d="m132.2,35.6c-.7,0-.8.6-1.1.9-16.4,23.4-37.6,41.3-62.8,54.6-11.7,6.2-23.9,11-36.7,14.5-.6.2-1.1.3-1.7.4-1.6.2-2.9-.6-3.3-2-.4-1.4.4-2.8,1.9-3.3,1.6-.5,3.2-.9,4.8-1.4,27.4-8.3,51.8-22,72.5-41.9,7.6-7.2,14.3-15.1,20.3-23.7.2-.3.4-.6.7-1.1-1.2-.4-2.1.1-3,.3-2.8.6-4.3,0-4.7-2-.4-1.8.8-2.9,3.5-3.5,3-.7,6-1.3,9.1-1.9,2.8-.6,4,.2,4.6,2.9.7,3.4,1.4,6.8,2.1,10.2.4,1.8-.5,3.2-1.9,3.6-1.6.4-3-.5-3.5-2.4-.3-1.4-.6-2.8-.9-4.2Z"/>
  <path class="cls-1" d="m85.4,160.5c-22.9,0-45.9,0-68.8,0-2.7,0-4-.8-4-2.7,0-1.9,1.3-2.7,3.9-2.7,46,0,92,0,138,0,.5,0,1,0,1.5,0,1.5.2,2.5,1.3,2.5,2.7,0,1.4-1,2.5-2.4,2.6-.6,0-1.3,0-1.9,0-22.9,0-45.9,0-68.8,0Z"/>
  <path class="cls-1" d="m25.9,134.4c0-4.6,0-9.1,0-13.7,0-2.5,1-3.5,3.4-3.5,5.1,0,10.2,0,15.3,0,2.5,0,3.6,1.1,3.6,3.6,0,9.1,0,18.2,0,27.4,0,1.4-.5,1.9-1.9,1.9-6.2,0-12.3,0-18.5,0-1.5,0-1.9-.5-1.9-2,0-4.6,0-9.1,0-13.7Z"/>
</svg>