<?xml version="1.0" encoding="utf-8"?>
<!-- Generator: Adobe Illustrator 27.5.0, SVG Export Plug-In . SVG Version: 6.00 Build 0)  -->
<svg version="1.1" id="Camada_1" xmlns="http://www.w3.org/2000/svg" xmlns:xlink="http://www.w3.org/1999/xlink" x="0px" y="0px"
	 viewBox="0 0 1439.8 328.7" style="enable-background:new 0 0 1439.8 328.7;" xml:space="preserve">
<style type="text/css">
	.st0{fill:#FFFFFF;}
	.st1{fill:#143244;}
	.st2{fill:#83E5AE;}
	.st3{font-family:'ArialRoundedMTBold';}
	.st4{font-size:119.2668px;}
</style>
<g>
	<path class="st0" d="M207.6,94.3l61.8-20.8c8.1-2.7,12.5-11.5,9.7-19.6l-9.5-28.4c-2.7-8.1-11.5-12.5-19.6-9.7L40.2,86.3
		c-8.1,2.7-12.5,11.5-9.7,19.6l54.7,162.7c2.7,8.1,11.5,12.5,19.6,9.7l209.8-70.4c8.1-2.7,12.5-11.5,9.7-19.6L311.4,150
		c-2.7-8.1-11.5-12.5-19.6-9.7L230,161c-6.3,2.2-13.1-1.3-15.2-7.5l-14.7-43.9C198,103.2,201.4,96.4,207.6,94.3z"/>
	<path class="st1" d="M230.1,161c-6.3,2.2-13.1-1.3-15.2-7.5l-14.7-43.9c-2.2-6.3,1.3-13.1,7.5-15.2l50.4-16.9l-6.3-18.8
		c-2.7-8.3-11.7-12.8-20.1-9.9L22.4,119.2c-8.1,2.7-12.5,11.5-9.7,19.6l54.7,162.7c2.7,8.1,11.5,12.5,19.6,9.7l209.6-70.7
		c8.1-2.7,12.5-11.5,9.7-19.6l-25.8-76.8L230.1,161z"/>
	<circle class="st1" cx="238.3" cy="120.9" r="16.1"/>
</g>
<g>
	<g>
		<path class="st1" d="M556.1,103.9h14.8l-48,141.8h-14.6l-39.8-124.2l-40.2,124.2h-14.4L366,103.9h15.2l40.2,126.9l40.1-126.9h14.2
			L516,230.8L556.1,103.9z"/>
		<path class="st1" d="M646.1,245.6l-0.3-17.9c-4.2,6.2-9.7,10.9-16.4,13.9c-6.8,3-14.6,4.5-23.3,4.5c-7.1,0-13.5-1.3-18.9-4.1
			c-5.4-2.8-9.7-6.6-12.7-11.4c-2.9-4.9-4.5-10.3-4.5-16.4c0-9.1,3.6-16.4,10.6-21.7c7-5.3,16.8-7.9,29.3-7.9h35.6v-8.1
			c0-8.3-2.5-14.8-7.5-19.5c-5-4.6-12.3-6.9-21.8-6.9c-11.4,0-22.8,4.2-34.3,12.7l-6.1-9.3c7.1-5,14-8.7,20.5-11
			c6.5-2.4,13.9-3.6,22.2-3.6c12.8,0,22.8,3.2,29.8,9.7c7,6.4,10.6,15.4,10.7,26.6l0.3,70.3L646.1,245.6L646.1,245.6z M632.7,228.3
			c6.5-4.4,11-10.6,13.2-18.5v-14.6h-34.3c-9.3,0-16.4,1.6-21.3,4.6s-7.3,7.8-7.3,14c0,6.4,2.4,11.4,7,15.4
			c4.6,3.8,10.9,5.8,18.5,5.8C618.1,234.9,626.1,232.7,632.7,228.3z"/>
		<path class="st1" d="M689,95.4h13.6v150.2H689V95.4L689,95.4z"/>
		<path class="st1" d="M734.2,95.4h13.6v150.2h-13.6V95.4z"/>
		<path class="st1" d="M861.1,154.8c8.6,10.5,12.6,24.5,11.9,42.2h-88.5c0.9,11.4,5.2,20.5,12.6,27.4c7.4,7,16.5,10.5,27.5,10.5
			c6.8,0,13-1.2,18.8-3.7c5.8-2.4,10.9-5.8,15-10.3l7.7,7.7c-5.2,5.6-11.3,9.8-18.5,12.8c-7.3,3-15.2,4.5-23.8,4.5
			c-10.3,0-19.3-2.3-27.4-6.8c-7.9-4.5-14.2-10.9-18.8-18.9c-4.5-8.1-6.8-17.3-6.8-27.8c0-10.3,2.3-19.5,6.8-27.7
			c4.5-8.2,10.7-14.6,18.8-19.1c7.9-4.5,16.9-6.8,26.9-6.8C840,139.1,852.5,144.4,861.1,154.8z M861,186.5
			c-0.7-11.1-4.4-19.9-11-26.5c-6.6-6.5-15.5-9.8-26.2-9.8s-19.6,3.3-26.7,9.9c-7.1,6.6-11.3,15.4-12.3,26.3H861z"/>
		<path class="st1" d="M946.3,238.3c-7.3,5-15.1,7.7-23.4,7.9c-8.1,0-14.6-2.5-19.2-7.5c-4.8-5-7.1-12.4-7.1-22.5v-63.1h-15.2
			l-0.3-10.6h15.4v-27.4H910v27.4l34.4-0.3V153H910v61c0,13.1,4.9,19.6,14.6,19.6c5.4,0,11.3-1.9,17.6-5.7L946.3,238.3z"/>
	</g>
	<g>
		<path class="st1" d="M1014.8,185.4L1040,104h33l24.9,81.4L1126,104h34.3l-49.4,141.5h-23.4l-31.2-98.3l-30.8,98.5H1002
			l-49.4-141.5h34.3L1014.8,185.4z"/>
		<path class="st1" d="M1176.3,122.8c-3.4-3.4-5.2-7.7-5.2-12.7c0-5,1.7-9.3,5.2-12.7s7.7-5.2,12.7-5.2s9.3,1.7,12.7,5.2
			c3.4,3.4,5.2,7.7,5.2,12.7c0,5-1.7,9.3-5.2,12.7s-7.7,5.2-12.7,5.2C1183.8,128,1179.7,126.2,1176.3,122.8z M1204.1,245.6h-30.3
			V136.7h30.3V245.6z"/>
		<path class="st1" d="M1310.8,211.7c0,10.7-4,19.3-11.9,25.8s-17.9,9.7-30,9.7c-8.1,0-16.5-1.5-25.3-4.4
			c-8.7-2.9-16.7-7.1-23.7-12.8l13.4-19.1c11.4,8.7,23.4,13.1,36.3,13.1c4,0,7-0.8,9.3-2.4c2.3-1.6,3.4-3.6,3.4-6.2
			c0-2.5-1.6-4.9-4.8-7.1c-3.2-2.1-7.8-4.2-13.8-6.1c-6-1.9-10.6-3.6-13.8-4.9c-3.2-1.3-6.8-3.3-10.9-5.8
			c-8.2-5.2-12.3-12.7-12.3-22.8s4.1-18.3,12.2-24.6c8.1-6.4,18.5-9.5,31.4-9.5s25.7,4.4,38.5,13l-11.4,20.3
			c-9.4-6.5-18.9-9.7-28.2-9.7c-9.4,0-14,2.5-14,7.7c0,2.8,1.5,5,4.5,6.6c2.9,1.6,7.9,3.6,14.8,5.7c6.9,2.1,11.8,3.8,14.7,4.9
			c2.9,1.2,6.4,2.9,10.5,5.4C1306.9,193.3,1310.8,201,1310.8,211.7z"/>
		<path class="st1" d="M1423.7,229.9c-12.3,11.6-26.7,17.5-43.3,17.5c-16.5,0-30.2-5-41-15.4c-10.9-10.2-16.1-23.8-16.1-41
			s5.6-30.8,16.5-40.9c11-10.2,24-15.2,39-15.2c15.1,0,27.7,4.5,38.1,13.6c10.5,9,15.8,21.4,15.8,37.3v16.1h-79.4
			c0.9,6,4.1,10.9,9.3,14.6c5.3,3.8,11.3,5.7,17.9,5.7c10.7,0,19.5-3.6,26.3-10.7L1423.7,229.9z M1394.5,165.2
			c-4.2-3.6-9.3-5.3-15.4-5.3c-6,0-11.5,1.9-16.5,5.4c-5,3.7-7.9,8.6-8.7,14.8h47.8C1401.2,173.8,1398.6,168.7,1394.5,165.2z"/>
	</g>
</g>
<text transform="matrix(0.9479 -0.3186 0.3186 0.9479 118.9495 233.0966)" class="st2 st3 st4">$</text>
</svg>
