<?xml version="1.0" encoding="utf-8"?>
<!-- Generator: Adobe Illustrator 27.5.0, SVG Export Plug-In . SVG Version: 6.00 Build 0)  -->
<svg version="1.0" id="Camada_1" xmlns="http://www.w3.org/2000/svg" xmlns:xlink="http://www.w3.org/1999/xlink" x="0px" y="0px"
	 viewBox="0 0 816 472" enable-background="new 0 0 816 472" xml:space="preserve">
<g>
	<path fill="#FFFFFF" d="M447,92.9l59.3-27.1c7.8-3.5,11.2-12.7,7.6-20.5L501.5,18c-3.5-7.8-12.7-11.2-20.5-7.6l-201.3,91.9
		c-7.8,3.5-11.2,12.7-7.6,20.5l71.3,156.1c3.5,7.8,12.7,11.2,20.5,7.6l201.3-91.9c7.8-3.5,11.2-12.7,7.6-20.5L556,137.4
		c-3.5-7.8-12.7-11.2-20.5-7.6l-59.3,27.1c-6,2.8-13.2,0.1-15.9-5.9l-19.2-42.1C438.4,102.7,441,95.6,447,92.9z"/>
	<path fill="#143244" d="M476.3,156.9c-6,2.8-13.2,0.1-15.9-5.9l-19.2-42.1c-2.8-6-0.1-13.2,5.9-15.9l48.4-22.1l-8.2-18
		c-3.6-8-13-11.5-21-7.8l-200.9,91.8c-7.8,3.5-11.2,12.7-7.6,20.5l71.3,156.1c3.5,7.8,12.7,11.2,20.5,7.6L550.7,229
		c7.8-3.5,11.2-12.7,7.6-20.5l-33.7-73.7L476.3,156.9z"/>
	<circle fill="#143244" cx="480.3" cy="116.1" r="16.1"/>
</g>
<g>
	<path fill="#143244" d="M148.1,359.8h11.2L123,466.9h-11l-30.1-93.8l-30.4,93.8H40.6L4.5,359.8h11.5l30.4,95.9l30.3-95.9h10.7
		l30.4,95.9L148.1,359.8z"/>
	<path fill="#143244" d="M216.1,466.9l-0.2-13.5c-3.2,4.7-7.3,8.2-12.4,10.5c-5.1,2.3-11,3.4-17.6,3.4c-5.4,0-10.2-1-14.3-3.1
		c-4.1-2.1-7.3-5-9.6-8.6c-2.2-3.7-3.4-7.8-3.4-12.4c0-6.9,2.7-12.4,8-16.4s12.7-6,22.1-6h26.9v-6.1c0-6.3-1.9-11.2-5.7-14.7
		c-3.8-3.5-9.3-5.2-16.5-5.2c-8.6,0-17.2,3.2-25.9,9.6l-4.6-7c5.4-3.8,10.6-6.6,15.5-8.3c4.9-1.8,10.5-2.7,16.8-2.7
		c9.7,0,17.2,2.4,22.5,7.3c5.3,4.8,8,11.6,8.1,20.1l0.2,53.1H216.1z M206,453.8c4.9-3.3,8.3-8,10-14v-11h-25.9
		c-7,0-12.4,1.2-16.1,3.5c-3.7,2.3-5.5,5.9-5.5,10.6c0,4.8,1.8,8.6,5.3,11.6c3.5,2.9,8.2,4.4,14,4.4C195,458.8,201,457.1,206,453.8z
		"/>
	<path fill="#143244" d="M248.5,353.4h10.3v113.5h-10.3V353.4z"/>
	<path fill="#143244" d="M282.7,353.4h10.3v113.5h-10.3V353.4z"/>
	<path fill="#143244" d="M378.6,398.3c6.5,7.9,9.5,18.5,9,31.9h-66.9c0.7,8.6,3.9,15.5,9.5,20.7c5.6,5.3,12.5,7.9,20.8,7.9
		c5.1,0,9.8-0.9,14.2-2.8c4.4-1.8,8.2-4.4,11.3-7.8l5.8,5.8c-3.9,4.2-8.5,7.4-14,9.7c-5.5,2.3-11.5,3.4-18,3.4
		c-7.8,0-14.6-1.7-20.7-5.1c-6-3.4-10.7-8.2-14.2-14.3c-3.4-6.1-5.1-13.1-5.1-21c0-7.8,1.7-14.7,5.1-20.9c3.4-6.2,8.1-11,14.2-14.4
		c6-3.4,12.8-5.1,20.3-5.1C362.6,386.4,372.1,390.4,378.6,398.3z M378.5,422.2c-0.5-8.4-3.3-15-8.3-20c-5-4.9-11.7-7.4-19.8-7.4
		c-8.1,0-14.8,2.5-20.2,7.5c-5.4,5-8.5,11.6-9.3,19.9H378.5z"/>
	<path fill="#143244" d="M442.9,461.4c-5.5,3.8-11.4,5.8-17.7,6c-6.1,0-11-1.9-14.5-5.7c-3.6-3.8-5.4-9.4-5.4-17V397h-11.5l-0.2-8
		h11.6v-20.7h10.3V389l26-0.2v8.1h-26V443c0,9.9,3.7,14.8,11,14.8c4.1,0,8.5-1.4,13.3-4.3L442.9,461.4z"/>
</g>
<g>
	<path fill="#143244" d="M494.7,421.4l19-61.5h24.9l18.8,61.5l21.3-61.5h25.9l-37.3,106.9h-17.7L526,392.5l-23.3,74.4H485
		l-37.3-106.9h25.9L494.7,421.4z"/>
	<path fill="#143244" d="M616.7,374.1c-2.6-2.6-3.9-5.8-3.9-9.6c0-3.8,1.3-7,3.9-9.6s5.8-3.9,9.6-3.9c3.8,0,7,1.3,9.6,3.9
		c2.6,2.6,3.9,5.8,3.9,9.6c0,3.8-1.3,7-3.9,9.6c-2.6,2.6-5.8,3.9-9.6,3.9C622.4,378,619.3,376.7,616.7,374.1z M637.7,466.9h-22.9
		v-82.3h22.9V466.9z"/>
	<path fill="#143244" d="M718.3,441.3c0,8.1-3,14.6-9,19.5c-6,4.9-13.5,7.3-22.7,7.3c-6.1,0-12.5-1.1-19.1-3.3
		c-6.6-2.2-12.6-5.4-17.9-9.7l10.1-14.4c8.6,6.6,17.7,9.9,27.4,9.9c3,0,5.3-0.6,7-1.8c1.7-1.2,2.6-2.7,2.6-4.7
		c0-1.9-1.2-3.7-3.6-5.4c-2.4-1.6-5.9-3.2-10.4-4.6c-4.5-1.4-8-2.7-10.4-3.7c-2.4-1-5.1-2.5-8.2-4.4c-6.2-3.9-9.3-9.6-9.3-17.2
		c0-7.6,3.1-13.8,9.2-18.6c6.1-4.8,14-7.2,23.7-7.2c9.7,0,19.4,3.3,29.1,9.8l-8.6,15.3c-7.1-4.9-14.3-7.3-21.3-7.3
		c-7.1,0-10.6,1.9-10.6,5.8c0,2.1,1.1,3.8,3.4,5c2.2,1.2,6,2.7,11.2,4.3c5.2,1.6,8.9,2.9,11.1,3.7c2.2,0.9,4.8,2.2,7.9,4.1
		C715.4,427.4,718.3,433.2,718.3,441.3z"/>
	<path fill="#143244" d="M803.6,455c-9.3,8.8-20.2,13.2-32.7,13.2c-12.5,0-22.8-3.8-31-11.6c-8.2-7.7-12.2-18-12.2-31
		c0-13,4.2-23.3,12.5-30.9c8.3-7.7,18.1-11.5,29.5-11.5s20.9,3.4,28.8,10.3c7.9,6.8,11.9,16.2,11.9,28.2v12.2h-60
		c0.7,4.5,3.1,8.2,7,11c4,2.9,8.5,4.3,13.5,4.3c8.1,0,14.7-2.7,19.9-8.1L803.6,455z M781.6,406.1c-3.2-2.7-7-4-11.6-4
		c-4.5,0-8.7,1.4-12.5,4.1c-3.8,2.8-6,6.5-6.6,11.2h36.1C786.6,412.6,784.7,408.8,781.6,406.1z"/>
</g>
<text transform="matrix(0.9095 -0.4156 0.4156 0.9095 373.2676 240.134)" fill="#83E5AE" font-family="'ArialRoundedMTBold'" font-size="119.272px">$</text>
</svg>
